<?xml version="1.0" encoding="utf-8"?><svg version="1.1" id="Layer_1" xmlns="http://www.w3.org/2000/svg" xmlns:xlink="http://www.w3.org/1999/xlink" x="0px" y="0px" viewBox="0 0 122.88 95.51" style="enable-background:new 0 0 122.88 95.51" xml:space="preserve"><style type="text/css">.st0{fill-rule:evenodd;clip-rule:evenodd;}</style><g><path class="st0" d="M12.6,30.14h96.77v37.89H12.6V30.14L12.6,30.14z M59.27,37.96h7.22v13.93c0,1.38-0.22,2.68-0.65,3.91 c-0.43,1.23-1.1,2.3-2.02,3.22c-0.92,0.92-1.88,1.56-2.89,1.94c-1.4,0.52-3.09,0.78-5.06,0.78c-1.14,0-2.38-0.08-3.72-0.24 c-1.34-0.16-2.47-0.47-3.37-0.95c-0.9-0.47-1.73-1.14-2.48-2.01c-0.75-0.87-1.26-1.77-1.54-2.69c-0.45-1.49-0.67-2.8-0.67-3.95 V37.96h7.22v14.26c0,1.27,0.35,2.27,1.06,2.98c0.71,0.72,1.69,1.08,2.94,1.08c1.24,0,2.21-0.35,2.92-1.06c0.7-0.7,1.06-1.7,1.06-3 V37.96L59.27,37.96z M71.55,37.96h7.25v23.38h-7.25V37.96L71.55,37.96z M8.32,0h106.24c4.58,0,8.32,3.74,8.32,8.32v78.87 c0,4.57-3.74,8.32-8.32,8.32H8.32C3.74,95.51,0,91.77,0,87.19V8.32C0,3.74,3.74,0,8.32,0L8.32,0z M117.97,23.29H5.29V88 c0,0.64,0.25,1.2,0.67,1.63c0.42,0.43,0.99,0.67,1.63,0.67h108.04c0.64,0,1.2-0.25,1.63-0.67c0.43-0.43,0.67-0.99,0.67-1.63V23.29 H117.97L117.97,23.29z M106.64,9.35c2.27,0,4.11,1.84,4.11,4.11c0,2.27-1.84,4.11-4.11,4.11c-2.27,0-4.11-1.84-4.11-4.11 C102.54,11.19,104.38,9.35,106.64,9.35L106.64,9.35z M78.8,9.35c2.27,0,4.11,1.84,4.11,4.11c0,2.27-1.84,4.11-4.11,4.11 c-2.27,0-4.11-1.84-4.11-4.11C74.69,11.19,76.53,9.35,78.8,9.35L78.8,9.35z M92.72,9.35c2.27,0,4.11,1.84,4.11,4.11 c0,2.27-1.84,4.11-4.11,4.11c-2.27,0-4.11-1.84-4.11-4.11C88.61,11.19,90.45,9.35,92.72,9.35L92.72,9.35z M66.87,83.68 c-1.78,0-3.22-1.57-3.22-3.5c0-1.94,1.44-3.5,3.22-3.5h39.65c1.78,0,3.22,1.57,3.22,3.5c0,1.94-1.44,3.5-3.22,3.5H66.87 L66.87,83.68z M14.96,83.68c-1.76,0-3.19-1.57-3.19-3.5c0-1.94,1.43-3.5,3.19-3.5h36.76c1.76,0,3.19,1.57,3.19,3.5 c0,1.94-1.43,3.5-3.19,3.5H14.96L14.96,83.68z"/></g></svg>