<svg viewBox="0 0 512 512" xmlns="http://www.w3.org/2000/svg" fill-rule="evenodd" clip-rule="evenodd" stroke-linejoin="round" stroke-miterlimit="2"><path d="M361.079 206.46c-25.576-112.83-78.884-142.866-92.482-164.1a241.402 241.402 0 01-14.868-29.1c-.719 10.023-2.038 16.338-10.558 23.939-17.107 15.252-89.76 74.456-95.873 202.655-5.697 119.528 87.87 193.233 100.233 200.851 9.506 4.678 21.082.1 26.729-4.193 45.105-30.956 106.732-113.481 86.869-230.052" fill="#10aa50" fill-rule="nonzero"/><path d="M257.604 377.057c-2.355 29.585-4.042 46.775-10.023 63.681 0 0 3.926 28.166 6.682 58.002h9.756a542.483 542.483 0 0110.642-62.462c-12.63-6.214-16.572-33.26-17.057-59.221z" fill="#b8c4c2" fill-rule="nonzero"/><path d="M274.644 436.295c-12.763-5.897-16.455-33.512-17.023-59.238a1212.794 1212.794 0 002.757-127.547c-.669-22.319.317-206.715-5.497-233.711a224.383 224.383 0 0013.716 26.545c13.598 21.25 66.922 51.286 92.482 164.116 19.913 116.37-41.38 198.679-86.435 229.835z" fill="#12924f" fill-rule="nonzero"/></svg>