<svg class="svg-icon" style="width: 1em;height: 1em;vertical-align: middle;fill: currentColor;overflow: hidden;" viewBox="0 0 1024 1024" version="1.1" xmlns="http://www.w3.org/2000/svg"><path d="M512 93.26592L122.368 232.127147l59.060907 515.720533 330.55744 182.90688 330.55744-182.90688 59.060906-515.720533z m-80.960853 130.89792c14.834347-0.256 30.856533 4.491947 48.6912 14.10048 7.850667 4.232533 31.522133 10.21952 52.589226 13.274453 74.87488 10.8544 163.754667 68.041387 191.863467 123.51488 19.34336 38.171307 15.387307 58.740053-14.267733 74.07616-25.572693 13.223253-77.899093 6.826667-153.873067-18.83136l-64.119467-21.650773-22.811306 8.710827c-33.051307 12.622507-66.102613 43.953493-79.633067 75.400533-9.755307 22.6816-11.240107 33.34144-9.454933 70.673067 1.785173 37.393067 4.488533 48.196267 17.749333 71.66976 15.097173 26.722987 49.752747 60.818773 55.743147 54.831786 1.614507-1.614507-1.959253-12.45184-7.877974-24.057173-5.922133-11.605333-9.366187-23.296-7.714133-25.961813 1.645227-2.665813 17.250987 7.246507 34.669227 21.981866 38.741333 32.768 83.995307 53.725867 125.508266 58.0608 34.082133 3.566933 41.867947-2.778453 16.339627-13.35296-8.226133-3.406507-18.92352-10.540373-23.722667-15.84128-9.92256-10.963627-10.48576-10.6496 31.935147-20.159146 26.405547-5.915307 78.595413-33.61792 81.70496-43.383467 0.989867-3.106133-7.492267-4.42368-21.4016-3.31776-12.649813 1.006933-22.97856-0.29696-22.97856-2.901333 0-2.594133 10.349227-15.438507 22.97856-28.6208 47.387307-49.455787 63.556267-86.4256 68.601173-156.69248l3.4816-48.52736 11.117227 23.06048c12.291413 25.43616 14.557867 62.129493 5.80608 93.651626-7.307947 26.320213-2.430293 29.231787 10.949973 6.5536 16.5376-28.030293 21.8112-23.569067 18.909867 15.926614-3.15392 42.963627-17.896107 75.15136-51.176107 111.568213-27.136 29.692587-23.896747 35.00032 8.956587 14.76608 31.65184-19.493547 35.877547-16.4352 19.57888 14.1824-30.825813 57.903787-95.98976 107.008-163.662507 123.429547-41.014613 9.956693-70.099627 11.813547-107.670186 6.888106-98.235733-12.885333-191.15008-79.04256-235.496107-167.642453-11.53024-23.033173-27.83232-51.17952-36.2496-62.62784-17.380693-23.63392-18.87232-34.26304-7.133867-52.176213 5.853867-8.936107 7.222613-18.11456 4.8128-31.771307-11.17184-63.25248-10.810027-65.2288 14.595414-90.996053 22.07744-22.391467 23.476907-25.3952 23.476906-51.514027 0-22.654293 2.290347-30.081707 12.526934-40.31488 6.894933-6.894933 17.851733-12.629333 24.302933-12.690773 18.7392-0.170667 51.0976-17.527467 70.260053-37.659307 15.998293-16.817493 33.020587-25.316693 52.094294-25.634133z" fill="#AB47BC" /></svg>