<svg width="250" height="250" xmlns="http://www.w3.org/2000/svg" xml:space="preserve" version="1.1">
 <g>
  <title>Layer 1</title>
  <path id="svg_1" fill="#1566BF" d="m125,0c-69,0 -125,56 -125,125s56,125 125,125c13,0 25.5,-2 37.3,-5.7l-61.1,-60.7l14.4,-35.2l30.7,0c12.6,0 22.9,-10.2 22.9,-22.9l0,0c0,-12.6 -10.2,-22.9 -22.9,-22.9l-92.2,0c-2.8,0 -4.2,-3.4 -2.3,-5.4l46,-46.5c1.2,-1.2 3.3,-0.4 3.3,1.4l0,16.3l49.9,0c28.9,0 52.3,23.4 52.3,52.3l0,11.4c0,28.9 -23.4,52.3 -52.3,52.3l0,0l43.7,44.1c33.4,-22.2 55.3,-60.3 55.3,-103.5c0,-69 -56,-125 -125,-125z" class="st0"/>
  <path id="svg_1" fill="#1566BF" d="m125,0c-69,0 -125,56 -125,125s56,125 125,125c13,0 25.5,-2 37.3,-5.7l-61.1,-60.7l14.4,-35.2l30.7,0c12.6,0 22.9,-10.2 22.9,-22.9l0,0c0,-12.6 -10.2,-22.9 -22.9,-22.9l-92.2,0c-2.8,0 -4.2,-3.4 -2.3,-5.4l46,-46.5c1.2,-1.2 3.3,-0.4 3.3,1.4l0,16.3l49.9,0c28.9,0 52.3,23.4 52.3,52.3l0,11.4c0,28.9 -23.4,52.3 -52.3,52.3l0,0l43.7,44.1c33.4,-22.2 55.3,-60.3 55.3,-103.5c0,-69 -56,-125 -125,-125z" class="st0"/>
  <path id="svg_1" fill="#1566BF" d="m125,0c-69,0 -125,56 -125,125s56,125 125,125c13,0 25.5,-2 37.3,-5.7l-61.1,-60.7l14.4,-35.2l30.7,0c12.6,0 22.9,-10.2 22.9,-22.9l0,0c0,-12.6 -10.2,-22.9 -22.9,-22.9l-92.2,0c-2.8,0 -4.2,-3.4 -2.3,-5.4l46,-46.5c1.2,-1.2 3.3,-0.4 3.3,1.4l0,16.3l49.9,0c28.9,0 52.3,23.4 52.3,52.3l0,11.4c0,28.9 -23.4,52.3 -52.3,52.3l0,0l43.7,44.1c33.4,-22.2 55.3,-60.3 55.3,-103.5c0,-69 -56,-125 -125,-125z" class="st0"/>
  <path id="svg_1" fill="#1566BF" d="m125,0c-69,0 -125,56 -125,125s56,125 125,125c13,0 25.5,-2 37.3,-5.7l-61.1,-60.7l14.4,-35.2l30.7,0c12.6,0 22.9,-10.2 22.9,-22.9l0,0c0,-12.6 -10.2,-22.9 -22.9,-22.9l-92.2,0c-2.8,0 -4.2,-3.4 -2.3,-5.4l46,-46.5c1.2,-1.2 3.3,-0.4 3.3,1.4l0,16.3l49.9,0c28.9,0 52.3,23.4 52.3,52.3l0,11.4c0,28.9 -23.4,52.3 -52.3,52.3l0,0l43.7,44.1c33.4,-22.2 55.3,-60.3 55.3,-103.5c0,-69 -56,-125 -125,-125z" class="st0"/>
  <path id="svg_1" fill="#1566BF" d="m125,0c-69,0 -125,56 -125,125s56,125 125,125c13,0 25.5,-2 37.3,-5.7l-61.1,-60.7l14.4,-35.2l30.7,0c12.6,0 22.9,-10.2 22.9,-22.9l0,0c0,-12.6 -10.2,-22.9 -22.9,-22.9l-92.2,0c-2.8,0 -4.2,-3.4 -2.3,-5.4l46,-46.5c1.2,-1.2 3.3,-0.4 3.3,1.4l0,16.3l49.9,0c28.9,0 52.3,23.4 52.3,52.3l0,11.4c0,28.9 -23.4,52.3 -52.3,52.3l0,0l43.7,44.1c33.4,-22.2 55.3,-60.3 55.3,-103.5c0,-69 -56,-125 -125,-125z" class="st0"/>
 </g>

</svg>