<svg xmlns="http://www.w3.org/2000/svg" shape-rendering="geometricPrecision" text-rendering="geometricPrecision" image-rendering="optimizeQuality" fill-rule="evenodd" clip-rule="evenodd" data-name="Layer 1" viewBox="0 0 512 512"><path fill="#7360F2" fill-rule="nonzero" d="M443.98 49.94C431.25 38.2 379.84.87 265.31.37c0 0-135.06-8.15-200.89 52.24-36.65 36.66-49.55 90.3-50.9 156.79-1.37 66.5-3.12 191.12 117 224.92h.12l-.08 51.56s-.77 20.87 12.98 25.13c16.63 5.16 26.38-10.7 42.26-27.81 8.71-9.39 20.74-23.18 29.81-33.72 82.15 6.92 145.34-8.89 152.52-11.22 16.58-5.38 110.45-17.41 125.72-142.02 15.76-128.44-7.62-209.68-49.87-246.3zM275.03 293.25s9.1.77 14.01-5.27l9.55-12.02c4.61-5.97 15.74-9.77 26.63-3.7 8.16 4.65 16.1 9.74 23.74 15.18 7.23 5.31 22.03 17.67 22.08 17.67 7.05 5.95 8.68 14.69 3.88 23.91 0 .06-.04.15-.04.2-5.27 9.15-12 17.43-19.88 24.48-.09.04-.09.09-.18.14-6.85 5.73-13.58 8.98-20.19 9.77-.76.13-1.53.2-2.31.2-.21 0-.43-.01-.64-.02h-.26c-2.83 0-5.65-.45-8.33-1.32l-.22-.32c-10.19-2.87-27.2-10.06-55.52-25.69a328.982 328.982 0 01-46.64-30.83c-7.35-5.74-14.39-12.01-20.99-18.58l-.71-.71-.7-.7-.01-.02-.71-.7-.71-.71a243.28 243.28 0 01-18.61-20.97c-11.49-14.61-21.92-30.33-30.81-46.66-15.63-28.33-22.82-45.33-25.7-55.53l-.31-.22c-.87-2.68-1.32-5.49-1.32-8.31v-.28c-.01-.23-.01-.47-.01-.7 0-.76.06-1.51.19-2.25.83-6.6 4.09-13.34 9.78-20.21.05-.09.1-.09.14-.18a99.27 99.27 0 0124.5-19.88c.04 0 .14-.05.19-.05 9.22-4.8 17.96-3.17 23.91 3.84.05.05 12.38 14.86 17.67 22.09 5.43 7.62 10.52 15.6 15.16 23.75 6.07 10.88 2.27 22.03-3.69 26.63l-12.03 9.56c-6.07 4.9-5.27 14-5.27 14s17.81 67.42 84.36 84.41zm111.13-62.33c.01 3.57-2.87 6.47-6.43 6.48a6.461 6.461 0 01-6.48-6.43c-.15-19.72-3.16-37.32-9.03-52.8-5.79-15.27-14.4-28.48-25.83-39.62-11.48-11.19-24.36-19.61-38.64-25.27-14.36-5.68-30.12-8.59-47.27-8.71a6.446 6.446 0 01-6.43-6.47 6.449 6.449 0 016.48-6.43c18.87.13 36.2 3.32 51.97 9.57 15.85 6.28 30.15 15.63 42.9 28.05 12.8 12.48 22.44 27.26 28.91 44.33 6.4 16.86 9.68 35.97 9.85 57.3zm-34.03-13.15c-.06 3.56-3.01 6.39-6.57 6.32a6.45 6.45 0 01-6.33-6.58c.48-21.95-5.97-40.23-19.33-54.83-6.67-7.28-14.65-12.94-23.94-17-9.43-4.12-20.26-6.61-32.5-7.51-3.56-.25-6.24-3.34-5.99-6.91a6.46 6.46 0 016.9-5.99c13.7 1 25.94 3.84 36.75 8.57 10.94 4.78 20.36 11.48 28.29 20.13 15.7 17.16 23.27 38.42 22.72 63.8zm-33.22-11.57a6.466 6.466 0 01-6.15 6.75 6.456 6.456 0 01-6.76-6.15c-.55-11.07-3.49-19.36-8.82-24.88-5.27-5.44-13.19-8.44-23.76-8.99a6.463 6.463 0 01-6.13-6.78c.19-3.56 3.22-6.31 6.78-6.12 13.97.73 24.78 5.04 32.42 12.94 7.56 7.82 11.7 18.9 12.42 33.23zm138.99 80.83c-12.89 104.04-89.02 110.58-103.06 115.08-5.97 1.93-61.46 15.73-131.25 11.18 0 0-52 62.73-68.24 79.04-2.54 2.55-5.52 3.58-7.51 3.07-2.8-.68-3.56-3.99-3.53-8.83.04-6.92.44-85.68.44-85.68s-.06 0 0 0C43.13 372.67 49.06 266.61 50.21 211.06c1.15-55.54 11.59-101.04 42.58-131.64 55.69-50.44 170.41-42.9 170.41-42.9 96.87.42 143.3 29.59 154.06 39.37C453 106.49 471.21 179.72 457.9 287v.03z"/></svg>