<svg xmlns="http://www.w3.org/2000/svg" xmlns:xlink="http://www.w3.org/1999/xlink" viewBox="0 0 66 82" fill="#fff" fill-rule="evenodd" stroke="#000" stroke-linecap="round" stroke-linejoin="round"><use xlink:href="#A" x=".5" y=".5"/><symbol id="A" overflow="visible"><path d="M18.299 60.185V40.567l22.32-3.303V3.894C40.619 1.75 38.789 0 36.547 0H4.072C1.83 0 0 1.75 0 3.894v75.712h33.686l-15.438-2.144v-5.619H6.057v-3.894h12.191v-3.894H6.057V60.16l12.242.025h0zM6.108 11.657h28.428v3.894H6.108v-3.894zm34.511 46.408H65V38.25l-24.381 3.105v16.71zm-2.011.001V41.553l-16.237 2.144v14.368h16.237zm0 2.119H22.371v13.974L38.608 76.5V60.185zm2.011 0v16.513L65 80V60.185H40.619z" fill="#00188f" stroke="none"/></symbol></svg>